TITLE:   CDL CONFORM TEST_V1_092612 FCM: NON-DROP FRAME 000001  A010                             V     C        15:07:56:14 15:08:06:11 00:00:00:00 00:00:09:21 *FROM CLIP NAME:  V64_02_A010 *ASC_SOP (1.2301 1.2175 1.2033)(-0.0730 -0.0428 -0.0162)(1.0463 1.0538 1.0680) *ASC_SAT 1.0000 *SOURCE FILE: 004 000002  B9908                            V     C        20:06:16:22 20:06:28:18 00:00:09:21 00:00:21:17 *FROM CLIP NAME:  B908C002_120906_R0U7 *SOURCE FILE: 004 000003  A029                             V     C        12:02:31:18 12:02:44:18 00:00:21:17 00:00:34:17 *FROM CLIP NAME:  84D_02_A029 *ASC_SOP (1.0246 1.0136 1.0008)(-0.0246 -0.0167 -0.0038)(0.8287 0.8808 0.9355) *ASC_SAT 1.1000 *SOURCE FILE: 012 000004  B029                             V     C        14:46:07:07 14:46:23:20 00:00:34:17 00:00:51:06 *FROM CLIP NAME:  84G_05_B029 *ASC_SOP (1.0246 1.0136 1.0008)(-0.0246 -0.0167 -0.0038)(0.8287 0.8808 0.9355) *ASC_SAT 1.1000 *SOURCE FILE: 012 000005  B003                             V     C        12:16:57:10 12:17:27:01 00:00:51:06 00:01:20:21 *FROM CLIP NAME:  V27_28_05_B003 *ASC_SOP (1.2998 1.3138 1.3165)(-0.1426 -0.1390 -0.1293)(1.0491 1.0579 1.0610) *ASC_SAT 1.0000 *SOURCE FILE: 002 000006  A005                             V     C        18:15:24:13 18:15:32:00 00:01:20:21 00:01:28:08 *FROM CLIP NAME:  V27_28D_04_A005 *ASC_SOP (1.2998 1.3138 1.3165)(-0.1426 -0.1390 -0.1293)(1.1541 1.1629 1.1660) *ASC_SAT 1.0000 *SOURCE FILE: 002 000007  A039                             V     C        16:37:32:08 16:37:38:19 00:01:28:08 00:01:34:19 *FROM CLIP NAME:  V68C_04_A039 *ASC_SOP (1.0541 1.0590 1.0848)(0.0640 0.0767 0.0633)(1.0161 1.0249 1.0280) *ASC_SAT 1.0000 *SOURCE FILE: 016 000008  A039                             V     C        12:43:23:10 12:43:30:14 00:01:34:19 00:01:41:23 *FROM CLIP NAME:  V85H_02_A039 *ASC_SOP (1.0541 1.0590 1.0848)(0.0640 0.0767 0.0633)(1.0161 1.0249 1.0280) *ASC_SAT 1.0000 *SOURCE FILE: 016 000009  A040                             V     C        17:42:31:20 17:42:38:13 00:01:41:23 00:01:48:16 *FROM CLIP NAME:  V68D_03_A040 *ASC_SOP (1.0541 1.0590 1.0848)(0.0640 0.0767 0.0633)(1.0161 1.0249 1.0280) *ASC_SAT 1.0000 *SOURCE FILE: 016 000010  A039                             V     C        16:37:32:08 16:37:38:19 00:01:48:16 00:01:55:03 *FROM CLIP NAME:  V68C_04_A039 *ASC_SOP (1.0541 1.0590 1.0848)(0.0640 0.0767 0.0633)(1.0161 1.0249 1.0280) *ASC_SAT 1.0000 *SOURCE FILE: 016 000011  E003                             V     C        16:33:50:21 16:33:53:12 00:01:55:03 00:01:57:18 *FROM CLIP NAME:  V68A_02_E003 *ASC_SOP (1.2301 1.2175 1.2033)(-0.0730 -0.0428 -0.0162)(1.0463 1.0538 1.0680) *ASC_SAT 1.0000 *SOURCE FILE: 005 >>> SOURCE A005                             A005 060a2b340101010101010f00-13-00-00-00-{5046a412-28eb-1a2a-060e2b347f7f2a80} *SOURCE FILE: 002 >>> SOURCE A010                             A010 060a2b340101010101010f00-13-00-00-00-{50490421-025a-1cc4-060e2b347f7f2a80} *SOURCE FILE: 004 >>> SOURCE A029                             A029 060a2b340101010101010f00-13-00-00-00-{5058c08c-aa92-1d11-060e2b347f7f2a80} *SOURCE FILE: 012 >>> SOURCE A039                             A039 060a2b340101010101010f00-13-00-00-00-{5060d196-6493-1d5e-060e2b347f7f2a80} *SOURCE FILE: 016 >>> SOURCE A040                             A040 060a2b340101010101010f00-13-00-00-00-{5060d0c0-2c51-19d7-060e2b347f7f2a80} *SOURCE FILE: 016 >>> SOURCE B003                             B003 060a2b340101010101010f00-13-00-00-00-{5047042f-8dd5-19b7-060e2b347f7f2a80} *SOURCE FILE: 002 >>> SOURCE B029                             B029 060a2b340101010101010f00-13-00-00-00-{5058d57f-d962-1d19-060e2b347f7f2a80} *SOURCE FILE: 012 >>> SOURCE B9908                            B9908 060a2b340101010101010f00-13-00-00-00-{50508fe7-7e32-1fb6-060e2b347f7f2a80} *SOURCE FILE: 004 >>> SOURCE E003                             E003 060a2b340101010101010f00-13-00-00-00-{504a987b-ef5e-1d61-060e2b347f7f2a80} *SOURCE FILE: 005 